<svg xmlns="http://www.w3.org/2000/svg" xmlns:xlink="http://www.w3.org/1999/xlink" width="500" zoomAndPan="magnify" viewBox="0 0 375 374.999991" height="500" preserveAspectRatio="xMidYMid meet" version="1.0"><defs><g/><clipPath id="806bebb243"><path d="M 50 180 L 102 180 L 102 189 L 50 189 Z M 50 180 " clip-rule="nonzero"/></clipPath><clipPath id="cdf717bbb0"><path d="M 60 160 L 102 160 L 102 169 L 60 169 Z M 60 160 " clip-rule="nonzero"/></clipPath><clipPath id="e7048ba1b9"><path d="M 81 170 L 102 170 L 102 179 L 81 179 Z M 81 170 " clip-rule="nonzero"/></clipPath><clipPath id="cfd7aa1fe3"><path d="M 37.5 180 L 47 180 L 47 189 L 37.5 189 Z M 37.5 180 " clip-rule="nonzero"/></clipPath><clipPath id="99cb0058b9"><path d="M 62 189 L 102 189 L 102 198 L 62 198 Z M 62 189 " clip-rule="nonzero"/></clipPath><clipPath id="c3c4e5fef6"><path d="M 66 199 L 102 199 L 102 208 L 66 208 Z M 66 199 " clip-rule="nonzero"/></clipPath></defs><g clip-path="url(#806bebb243)"><path fill="#ffffff" d="M 124.265625 180.109375 L 82.75 180.109375 L 80.976562 183.171875 L 76.871094 183.171875 L 75.097656 180.109375 C 73.570312 180.109375 54.417969 180.109375 52.886719 180.109375 L 50.59375 184.078125 L 52.886719 188.050781 C 54.417969 188.050781 73.570312 188.050781 75.097656 188.050781 L 76.871094 184.984375 L 80.976562 184.984375 L 82.75 188.050781 L 124.265625 188.050781 C 124.722656 185.425781 124.722656 182.738281 124.265625 180.109375 Z M 124.265625 180.109375 " fill-opacity="1" fill-rule="nonzero"/></g><g clip-path="url(#cdf717bbb0)"><path fill="#ffffff" d="M 67.269531 168.523438 L 69.039062 165.460938 L 73.144531 165.460938 L 74.917969 168.523438 L 118.6875 168.523438 C 110.460938 159.25 101.234375 160.574219 90.109375 160.574219 L 74.917969 160.574219 L 73.144531 163.640625 L 69.039062 163.640625 L 67.269531 160.574219 L 62.683594 160.574219 L 60.390625 164.546875 L 62.683594 168.515625 L 67.269531 168.515625 Z M 67.269531 168.523438 " fill-opacity="1" fill-rule="nonzero"/></g><g clip-path="url(#e7048ba1b9)"><path fill="#ffffff" d="M 94.6875 173.410156 L 90.582031 173.410156 L 88.808594 170.34375 L 84.222656 170.34375 L 81.929688 174.316406 L 84.222656 178.289062 L 88.808594 178.289062 L 90.582031 175.222656 L 94.6875 175.222656 L 96.460938 178.289062 L 123.878906 178.289062 C 123.136719 175.386719 121.855469 172.703125 120.144531 170.335938 L 96.460938 170.335938 Z M 94.6875 173.410156 " fill-opacity="1" fill-rule="nonzero"/></g><g clip-path="url(#cfd7aa1fe3)"><path fill="#ffffff" d="M 39.792969 180.109375 L 37.5 184.078125 L 39.792969 188.058594 L 44.386719 188.058594 L 46.679688 184.078125 L 44.386719 180.109375 Z M 39.792969 180.109375 " fill-opacity="1" fill-rule="nonzero"/></g><path fill="#ffffff" d="M 68.835938 174.316406 L 71.128906 178.289062 L 75.722656 178.289062 L 78.015625 174.316406 L 75.722656 170.34375 L 71.128906 170.34375 Z M 68.835938 174.316406 " fill-opacity="1" fill-rule="nonzero"/><path fill="#ffffff" d="M 55.464844 199.632812 L 53.164062 203.609375 L 55.464844 207.582031 L 60.050781 207.582031 L 62.34375 203.609375 L 60.050781 199.632812 Z M 55.464844 199.632812 " fill-opacity="1" fill-rule="nonzero"/><g clip-path="url(#99cb0058b9)"><path fill="#ffffff" d="M 75.097656 192.933594 L 70.996094 192.933594 L 69.222656 189.871094 L 64.636719 189.871094 L 62.34375 193.839844 L 64.636719 197.8125 L 69.222656 197.8125 L 70.996094 194.746094 L 75.097656 194.746094 L 76.871094 197.8125 L 120.136719 197.8125 C 121.847656 195.449219 123.128906 192.761719 123.871094 189.863281 C 109.507812 189.863281 91.226562 189.863281 76.863281 189.863281 Z M 75.097656 192.933594 " fill-opacity="1" fill-rule="nonzero"/></g><g clip-path="url(#c3c4e5fef6)"><path fill="#ffffff" d="M 86.855469 202.703125 L 82.75 202.703125 L 80.976562 199.640625 C 76.839844 199.640625 72.695312 199.640625 68.550781 199.640625 L 66.257812 203.609375 L 68.550781 207.582031 C 72.695312 207.582031 76.832031 207.582031 80.976562 207.582031 L 82.75 204.515625 L 86.855469 204.515625 L 88.628906 207.582031 C 100.375 207.582031 110.25 209.148438 118.6875 199.632812 L 88.628906 199.632812 Z M 86.855469 202.703125 " fill-opacity="1" fill-rule="nonzero"/></g><g fill="#ffffff" fill-opacity="1"><g transform="translate(112.560789, 186.730551)"><g><path d="M 13.546875 -0.21875 C 10.191406 0.0703125 7.40625 0.21875 5.1875 0.21875 C 3.71875 0.21875 2.632812 -0.125 1.9375 -0.8125 C 1.25 -1.5 0.90625 -2.582031 0.90625 -4.0625 L 0.90625 -11.296875 C 0.90625 -12.867188 1.257812 -14.015625 1.96875 -14.734375 C 2.6875 -15.453125 3.835938 -15.8125 5.421875 -15.8125 L 13.546875 -15.8125 L 13.546875 -12.640625 L 6.328125 -12.640625 C 5.421875 -12.640625 4.96875 -12.191406 4.96875 -11.296875 L 4.96875 -4.0625 C 4.96875 -3.71875 5.066406 -3.441406 5.265625 -3.234375 C 5.472656 -3.035156 5.734375 -2.9375 6.046875 -2.9375 C 6.367188 -2.9375 6.71875 -2.9375 7.09375 -2.9375 C 7.46875 -2.945312 7.859375 -2.957031 8.265625 -2.96875 C 8.671875 -2.988281 9.078125 -3.003906 9.484375 -3.015625 C 9.898438 -3.035156 10.4375 -3.066406 11.09375 -3.109375 C 11.75 -3.160156 12.566406 -3.21875 13.546875 -3.28125 Z M 13.546875 -0.21875 "/></g></g></g><g fill="#ffffff" fill-opacity="1"><g transform="translate(131.071112, 186.730551)"><g><path d="M -0.453125 -15.8125 L 3.84375 -15.8125 L 7.5625 -8.125 L 11.296875 -15.8125 L 15.578125 -15.8125 L 9.59375 -4.171875 L 9.59375 0 L 5.53125 0 L 5.53125 -4.171875 Z M -0.453125 -15.8125 "/></g></g></g><g fill="#ffffff" fill-opacity="1"><g transform="translate(150.709985, 186.730551)"><g><path d="M 1.359375 -15.8125 L 10.390625 -15.8125 C 11.859375 -15.8125 12.9375 -15.472656 13.625 -14.796875 C 14.320312 -14.128906 14.671875 -13.109375 14.671875 -11.734375 C 14.671875 -10.835938 14.472656 -10.101562 14.078125 -9.53125 C 13.691406 -8.96875 13.210938 -8.578125 12.640625 -8.359375 C 13.859375 -8.023438 14.6875 -7.210938 15.125 -5.921875 C 15.28125 -5.453125 15.359375 -4.910156 15.359375 -4.296875 C 15.359375 -2.816406 15.007812 -1.726562 14.3125 -1.03125 C 13.625 -0.34375 12.539062 0 11.0625 0 L 1.359375 0 Z M 11.296875 -4.96875 C 11.296875 -5.875 10.84375 -6.328125 9.9375 -6.328125 L 5.421875 -6.328125 L 5.421875 -3.15625 L 9.9375 -3.15625 C 10.84375 -3.15625 11.296875 -3.609375 11.296875 -4.515625 Z M 10.609375 -11.296875 C 10.609375 -12.191406 10.15625 -12.640625 9.25 -12.640625 L 5.421875 -12.640625 L 5.421875 -9.484375 L 9.25 -9.484375 C 10.15625 -9.484375 10.609375 -9.9375 10.609375 -10.84375 Z M 10.609375 -11.296875 "/></g></g></g><g fill="#ffffff" fill-opacity="1"><g transform="translate(171.251713, 186.730551)"><g><path d="M 13.890625 0 L 1.359375 0 L 1.359375 -15.8125 L 13.890625 -15.8125 L 13.890625 -12.640625 L 5.421875 -12.640625 L 5.421875 -9.59375 L 12.078125 -9.59375 L 12.078125 -6.4375 L 5.421875 -6.4375 L 5.421875 -3.15625 L 13.890625 -3.15625 Z M 13.890625 0 "/></g></g></g><g fill="#ffffff" fill-opacity="1"><g transform="translate(190.1006, 186.730551)"><g><path d="M 1.359375 -15.8125 L 10.84375 -15.8125 C 12.414062 -15.8125 13.5625 -15.453125 14.28125 -14.734375 C 15 -14.015625 15.359375 -12.867188 15.359375 -11.296875 L 15.359375 -9.25 C 15.359375 -8.007812 15.148438 -7.039062 14.734375 -6.34375 C 14.316406 -5.65625 13.65625 -5.195312 12.75 -4.96875 L 15.578125 0 L 11.171875 0 L 8.578125 -4.734375 L 5.421875 -4.734375 L 5.421875 0 L 1.359375 0 Z M 11.296875 -11.296875 C 11.296875 -12.191406 10.84375 -12.640625 9.9375 -12.640625 L 5.421875 -12.640625 L 5.421875 -7.90625 L 9.9375 -7.90625 C 10.84375 -7.90625 11.296875 -8.351562 11.296875 -9.25 Z M 11.296875 -11.296875 "/></g></g></g><g fill="#ffffff" fill-opacity="1"><g transform="translate(210.868037, 186.730551)"><g/></g></g><g fill="#ffffff" fill-opacity="1"><g transform="translate(222.155598, 186.730551)"><g><path d="M 13.546875 -0.21875 C 10.191406 0.0703125 7.40625 0.21875 5.1875 0.21875 C 3.71875 0.21875 2.632812 -0.125 1.9375 -0.8125 C 1.25 -1.5 0.90625 -2.582031 0.90625 -4.0625 L 0.90625 -11.296875 C 0.90625 -12.867188 1.257812 -14.015625 1.96875 -14.734375 C 2.6875 -15.453125 3.835938 -15.8125 5.421875 -15.8125 L 13.546875 -15.8125 L 13.546875 -12.640625 L 6.328125 -12.640625 C 5.421875 -12.640625 4.96875 -12.191406 4.96875 -11.296875 L 4.96875 -4.0625 C 4.96875 -3.71875 5.066406 -3.441406 5.265625 -3.234375 C 5.472656 -3.035156 5.734375 -2.9375 6.046875 -2.9375 C 6.367188 -2.9375 6.71875 -2.9375 7.09375 -2.9375 C 7.46875 -2.945312 7.859375 -2.957031 8.265625 -2.96875 C 8.671875 -2.988281 9.078125 -3.003906 9.484375 -3.015625 C 9.898438 -3.035156 10.4375 -3.066406 11.09375 -3.109375 C 11.75 -3.160156 12.566406 -3.21875 13.546875 -3.28125 Z M 13.546875 -0.21875 "/></g></g></g><g fill="#ffffff" fill-opacity="1"><g transform="translate(240.665914, 186.730551)"><g><path d="M 11.515625 -11.515625 C 11.515625 -12.421875 11.0625 -12.875 10.15625 -12.875 L 6.328125 -12.875 C 5.421875 -12.875 4.96875 -12.421875 4.96875 -11.515625 L 4.96875 -4.296875 C 4.96875 -3.390625 5.421875 -2.9375 6.328125 -2.9375 L 10.15625 -2.9375 C 11.0625 -2.9375 11.515625 -3.390625 11.515625 -4.296875 Z M 15.578125 -4.296875 C 15.578125 -2.710938 15.21875 -1.5625 14.5 -0.84375 C 13.789062 -0.132812 12.644531 0.21875 11.0625 0.21875 L 5.421875 0.21875 C 3.835938 0.21875 2.6875 -0.132812 1.96875 -0.84375 C 1.257812 -1.5625 0.90625 -2.710938 0.90625 -4.296875 L 0.90625 -11.515625 C 0.90625 -13.097656 1.257812 -14.242188 1.96875 -14.953125 C 2.6875 -15.671875 3.835938 -16.03125 5.421875 -16.03125 L 11.0625 -16.03125 C 12.644531 -16.03125 13.789062 -15.671875 14.5 -14.953125 C 15.21875 -14.242188 15.578125 -13.097656 15.578125 -11.515625 Z M 15.578125 -4.296875 "/></g></g></g><g fill="#ffffff" fill-opacity="1"><g transform="translate(261.659054, 186.730551)"><g><path d="M 11.515625 -15.8125 L 15.578125 -15.8125 L 15.578125 -4.296875 C 15.578125 -2.710938 15.21875 -1.5625 14.5 -0.84375 C 13.789062 -0.132812 12.644531 0.21875 11.0625 0.21875 L 5.875 0.21875 C 4.289062 0.21875 3.140625 -0.132812 2.421875 -0.84375 C 1.710938 -1.5625 1.359375 -2.710938 1.359375 -4.296875 L 1.359375 -15.8125 L 5.421875 -15.8125 L 5.421875 -4.296875 C 5.421875 -3.390625 5.875 -2.9375 6.78125 -2.9375 L 10.15625 -2.9375 C 11.0625 -2.9375 11.515625 -3.390625 11.515625 -4.296875 Z M 11.515625 -15.8125 "/></g></g></g><g fill="#ffffff" fill-opacity="1"><g transform="translate(283.103614, 186.730551)"><g><path d="M 1.359375 -15.8125 L 10.84375 -15.8125 C 12.414062 -15.8125 13.5625 -15.453125 14.28125 -14.734375 C 15 -14.015625 15.359375 -12.867188 15.359375 -11.296875 L 15.359375 -9.25 C 15.359375 -8.007812 15.148438 -7.039062 14.734375 -6.34375 C 14.316406 -5.65625 13.65625 -5.195312 12.75 -4.96875 L 15.578125 0 L 11.171875 0 L 8.578125 -4.734375 L 5.421875 -4.734375 L 5.421875 0 L 1.359375 0 Z M 11.296875 -11.296875 C 11.296875 -12.191406 10.84375 -12.640625 9.9375 -12.640625 L 5.421875 -12.640625 L 5.421875 -7.90625 L 9.9375 -7.90625 C 10.84375 -7.90625 11.296875 -8.351562 11.296875 -9.25 Z M 11.296875 -11.296875 "/></g></g></g><g fill="#ffffff" fill-opacity="1"><g transform="translate(303.871044, 186.730551)"><g><path d="M 0.875 -3.28125 C 5 -3.050781 7.789062 -2.9375 9.25 -2.9375 C 9.601562 -2.9375 9.878906 -3.035156 10.078125 -3.234375 C 10.285156 -3.441406 10.390625 -3.71875 10.390625 -4.0625 L 10.390625 -6.09375 L 5.1875 -6.09375 C 3.613281 -6.09375 2.46875 -6.445312 1.75 -7.15625 C 1.03125 -7.875 0.671875 -9.023438 0.671875 -10.609375 L 0.671875 -11.296875 C 0.671875 -12.867188 1.03125 -14.015625 1.75 -14.734375 C 2.46875 -15.453125 3.613281 -15.8125 5.1875 -15.8125 L 13.125 -15.8125 L 13.125 -12.640625 L 6.09375 -12.640625 C 5.1875 -12.640625 4.734375 -12.191406 4.734375 -11.296875 L 4.734375 -10.84375 C 4.734375 -9.9375 5.1875 -9.484375 6.09375 -9.484375 L 10.15625 -9.484375 C 11.632812 -9.484375 12.71875 -9.132812 13.40625 -8.4375 C 14.101562 -7.75 14.453125 -6.664062 14.453125 -5.1875 L 14.453125 -4.0625 C 14.453125 -2.582031 14.101562 -1.5 13.40625 -0.8125 C 12.71875 -0.125 11.632812 0.21875 10.15625 0.21875 C 9.394531 0.21875 8.582031 0.207031 7.71875 0.1875 L 5.640625 0.09375 C 4.109375 0.0195312 2.519531 -0.0820312 0.875 -0.21875 Z M 0.875 -3.28125 "/></g></g></g><g fill="#ffffff" fill-opacity="1"><g transform="translate(323.509924, 186.730551)"><g><path d="M 13.890625 0 L 1.359375 0 L 1.359375 -15.8125 L 13.890625 -15.8125 L 13.890625 -12.640625 L 5.421875 -12.640625 L 5.421875 -9.59375 L 12.078125 -9.59375 L 12.078125 -6.4375 L 5.421875 -6.4375 L 5.421875 -3.15625 L 13.890625 -3.15625 Z M 13.890625 0 "/></g></g></g></svg>