<svg xmlns="http://www.w3.org/2000/svg" xmlns:xlink="http://www.w3.org/1999/xlink" width="500" zoomAndPan="magnify" viewBox="0 0 375 374.999991" height="500" preserveAspectRatio="xMidYMid meet" version="1.0"><defs><g/><clipPath id="d4a3f03b58"><path d="M 50 180 L 102 180 L 102 189 L 50 189 Z M 50 180 " clip-rule="nonzero"/></clipPath><clipPath id="20a545e45a"><path d="M 60 160 L 102 160 L 102 169 L 60 169 Z M 60 160 " clip-rule="nonzero"/></clipPath><clipPath id="63cd7846fc"><path d="M 81 170 L 102 170 L 102 179 L 81 179 Z M 81 170 " clip-rule="nonzero"/></clipPath><clipPath id="56a67a15e9"><path d="M 37.5 180 L 47 180 L 47 189 L 37.5 189 Z M 37.5 180 " clip-rule="nonzero"/></clipPath><clipPath id="13af64c146"><path d="M 62 189 L 102 189 L 102 198 L 62 198 Z M 62 189 " clip-rule="nonzero"/></clipPath><clipPath id="2a63491460"><path d="M 66 199 L 102 199 L 102 208 L 66 208 Z M 66 199 " clip-rule="nonzero"/></clipPath></defs><g clip-path="url(#d4a3f03b58)"><path fill="#ffffff" d="M 124.265625 180.109375 L 82.75 180.109375 L 80.976562 183.171875 L 76.871094 183.171875 L 75.097656 180.109375 C 73.570312 180.109375 54.417969 180.109375 52.886719 180.109375 L 50.59375 184.078125 L 52.886719 188.050781 C 54.417969 188.050781 73.570312 188.050781 75.097656 188.050781 L 76.871094 184.984375 L 80.976562 184.984375 L 82.75 188.050781 L 124.265625 188.050781 C 124.722656 185.425781 124.722656 182.738281 124.265625 180.109375 Z M 124.265625 180.109375 " fill-opacity="1" fill-rule="nonzero"/></g><g clip-path="url(#20a545e45a)"><path fill="#ffffff" d="M 67.269531 168.523438 L 69.039062 165.460938 L 73.144531 165.460938 L 74.917969 168.523438 L 118.6875 168.523438 C 110.460938 159.25 101.234375 160.574219 90.109375 160.574219 L 74.917969 160.574219 L 73.144531 163.640625 L 69.039062 163.640625 L 67.269531 160.574219 L 62.683594 160.574219 L 60.390625 164.546875 L 62.683594 168.515625 L 67.269531 168.515625 Z M 67.269531 168.523438 " fill-opacity="1" fill-rule="nonzero"/></g><g clip-path="url(#63cd7846fc)"><path fill="#ffffff" d="M 94.6875 173.410156 L 90.582031 173.410156 L 88.808594 170.34375 L 84.222656 170.34375 L 81.929688 174.316406 L 84.222656 178.289062 L 88.808594 178.289062 L 90.582031 175.222656 L 94.6875 175.222656 L 96.460938 178.289062 L 123.878906 178.289062 C 123.136719 175.386719 121.855469 172.703125 120.144531 170.335938 L 96.460938 170.335938 Z M 94.6875 173.410156 " fill-opacity="1" fill-rule="nonzero"/></g><g clip-path="url(#56a67a15e9)"><path fill="#ffffff" d="M 39.792969 180.109375 L 37.5 184.078125 L 39.792969 188.058594 L 44.386719 188.058594 L 46.679688 184.078125 L 44.386719 180.109375 Z M 39.792969 180.109375 " fill-opacity="1" fill-rule="nonzero"/></g><path fill="#ffffff" d="M 68.835938 174.316406 L 71.128906 178.289062 L 75.722656 178.289062 L 78.015625 174.316406 L 75.722656 170.34375 L 71.128906 170.34375 Z M 68.835938 174.316406 " fill-opacity="1" fill-rule="nonzero"/><path fill="#ffffff" d="M 55.464844 199.632812 L 53.164062 203.609375 L 55.464844 207.582031 L 60.050781 207.582031 L 62.34375 203.609375 L 60.050781 199.632812 Z M 55.464844 199.632812 " fill-opacity="1" fill-rule="nonzero"/><g clip-path="url(#13af64c146)"><path fill="#ffffff" d="M 75.097656 192.933594 L 70.996094 192.933594 L 69.222656 189.871094 L 64.636719 189.871094 L 62.34375 193.839844 L 64.636719 197.8125 L 69.222656 197.8125 L 70.996094 194.746094 L 75.097656 194.746094 L 76.871094 197.8125 L 120.136719 197.8125 C 121.847656 195.449219 123.128906 192.761719 123.871094 189.863281 C 109.507812 189.863281 91.226562 189.863281 76.863281 189.863281 Z M 75.097656 192.933594 " fill-opacity="1" fill-rule="nonzero"/></g><g clip-path="url(#2a63491460)"><path fill="#ffffff" d="M 86.855469 202.703125 L 82.75 202.703125 L 80.976562 199.640625 C 76.839844 199.640625 72.695312 199.640625 68.550781 199.640625 L 66.257812 203.609375 L 68.550781 207.582031 C 72.695312 207.582031 76.832031 207.582031 80.976562 207.582031 L 82.75 204.515625 L 86.855469 204.515625 L 88.628906 207.582031 C 100.375 207.582031 110.25 209.148438 118.6875 199.632812 L 88.628906 199.632812 Z M 86.855469 202.703125 " fill-opacity="1" fill-rule="nonzero"/></g><g fill="#ffffff" fill-opacity="1"><g transform="translate(112.560789, 180.80817)"><g><path d="M 7.265625 -11.296875 C 8.484375 -11.296875 9.40625 -10.976562 10.03125 -10.34375 C 10.65625 -9.71875 10.96875 -8.800781 10.96875 -7.59375 L 10.96875 -3.71875 C 10.96875 -2.5 10.65625 -1.570312 10.03125 -0.9375 C 9.40625 -0.3125 8.484375 0 7.265625 0 L 0.96875 0 L 0.96875 -11.296875 Z M 8.078125 -7.59375 C 8.078125 -8.550781 7.59375 -9.03125 6.625 -9.03125 L 3.875 -9.03125 L 3.875 -2.265625 L 6.625 -2.265625 C 7.59375 -2.265625 8.078125 -2.75 8.078125 -3.71875 Z M 8.078125 -7.59375 "/></g></g></g><g fill="#ffffff" fill-opacity="1"><g transform="translate(127.411796, 180.80817)"><g><path d="M 6.296875 0 L 0.484375 0 L 0.484375 -2.265625 L 1.9375 -2.265625 L 1.9375 -9.03125 L 0.484375 -9.03125 L 0.484375 -11.296875 L 6.296875 -11.296875 L 6.296875 -9.03125 L 4.84375 -9.03125 L 4.84375 -2.265625 L 6.296875 -2.265625 Z M 6.296875 0 "/></g></g></g><g fill="#ffffff" fill-opacity="1"><g transform="translate(137.420547, 180.80817)"><g><path d="M 10.65625 -0.234375 C 8.132812 0.0234375 5.820312 0.15625 3.71875 0.15625 C 2.65625 0.15625 1.875 -0.0859375 1.375 -0.578125 C 0.882812 -1.078125 0.640625 -1.851562 0.640625 -2.90625 L 0.640625 -8.078125 C 0.640625 -9.203125 0.894531 -10.019531 1.40625 -10.53125 C 1.914062 -11.039062 2.738281 -11.296875 3.875 -11.296875 L 9.6875 -11.296875 L 9.6875 -9.03125 L 4.515625 -9.03125 C 3.867188 -9.03125 3.546875 -8.710938 3.546875 -8.078125 L 3.546875 -2.90625 C 3.546875 -2.65625 3.617188 -2.457031 3.765625 -2.3125 C 3.910156 -2.164062 4.109375 -2.09375 4.359375 -2.09375 C 5.597656 -2.09375 6.726562 -2.117188 7.75 -2.171875 L 7.75 -4.515625 L 5.65625 -4.515625 L 5.65625 -6.453125 L 10.65625 -6.453125 Z M 10.65625 -0.234375 "/></g></g></g><g fill="#ffffff" fill-opacity="1"><g transform="translate(151.94874, 180.80817)"><g><path d="M 6.296875 0 L 0.484375 0 L 0.484375 -2.265625 L 1.9375 -2.265625 L 1.9375 -9.03125 L 0.484375 -9.03125 L 0.484375 -11.296875 L 6.296875 -11.296875 L 6.296875 -9.03125 L 4.84375 -9.03125 L 4.84375 -2.265625 L 6.296875 -2.265625 Z M 6.296875 0 "/></g></g></g><g fill="#ffffff" fill-opacity="1"><g transform="translate(161.957491, 180.80817)"><g><path d="M 6.453125 0 L 3.546875 0 L 3.546875 -9.03125 L 0.15625 -9.03125 L 0.15625 -11.296875 L 9.84375 -11.296875 L 9.84375 -9.03125 L 6.453125 -9.03125 Z M 6.453125 0 "/></g></g></g><g fill="#ffffff" fill-opacity="1"><g transform="translate(175.194413, 180.80817)"><g><path d="M 2.984375 0 L -0.15625 0 L 4.109375 -11.296875 L 7.34375 -11.296875 L 11.625 0 L 8.46875 0 L 7.75 -2.015625 L 3.71875 -2.015625 Z M 4.4375 -4.109375 L 7.015625 -4.109375 L 5.734375 -7.90625 Z M 4.4375 -4.109375 "/></g></g></g><g fill="#ffffff" fill-opacity="1"><g transform="translate(189.884013, 180.80817)"><g><path d="M 3.875 -2.265625 L 9.765625 -2.265625 L 9.765625 0 L 0.96875 0 L 0.96875 -11.296875 L 3.875 -11.296875 Z M 3.875 -2.265625 "/></g></g></g><g fill="#ffffff" fill-opacity="1"><g transform="translate(203.040226, 180.80817)"><g/></g></g><g fill="#ffffff" fill-opacity="1"><g transform="translate(211.112072, 180.80817)"><g><path d="M 2.984375 0 L -0.15625 0 L 4.109375 -11.296875 L 7.34375 -11.296875 L 11.625 0 L 8.46875 0 L 7.75 -2.015625 L 3.71875 -2.015625 Z M 4.4375 -4.109375 L 7.015625 -4.109375 L 5.734375 -7.90625 Z M 4.4375 -4.109375 "/></g></g></g><g fill="#ffffff" fill-opacity="1"><g transform="translate(225.801667, 180.80817)"><g><path d="M 10.8125 0 L 7.75 0 L 3.875 -6.78125 L 3.875 0 L 0.96875 0 L 0.96875 -11.296875 L 4.03125 -11.296875 L 7.90625 -4.515625 L 7.90625 -11.296875 L 10.8125 -11.296875 Z M 10.8125 0 "/></g></g></g><g fill="#ffffff" fill-opacity="1"><g transform="translate(240.814076, 180.80817)"><g><path d="M 6.296875 0 L 0.484375 0 L 0.484375 -2.265625 L 1.9375 -2.265625 L 1.9375 -9.03125 L 0.484375 -9.03125 L 0.484375 -11.296875 L 6.296875 -11.296875 L 6.296875 -9.03125 L 4.84375 -9.03125 L 4.84375 -2.265625 L 6.296875 -2.265625 Z M 6.296875 0 "/></g></g></g><g fill="#ffffff" fill-opacity="1"><g transform="translate(250.822833, 180.80817)"><g><path d="M 10.65625 -6.296875 L 8.390625 -2.265625 L 6.140625 -2.265625 L 3.875 -6.296875 L 3.875 0 L 0.96875 0 L 0.96875 -11.296875 L 4.03125 -11.296875 L 7.265625 -5.328125 L 10.484375 -11.296875 L 13.5625 -11.296875 L 13.5625 0 L 10.65625 0 Z M 10.65625 -6.296875 "/></g></g></g><g fill="#ffffff" fill-opacity="1"><g transform="translate(268.579191, 180.80817)"><g><path d="M 2.984375 0 L -0.15625 0 L 4.109375 -11.296875 L 7.34375 -11.296875 L 11.625 0 L 8.46875 0 L 7.75 -2.015625 L 3.71875 -2.015625 Z M 4.4375 -4.109375 L 7.015625 -4.109375 L 5.734375 -7.90625 Z M 4.4375 -4.109375 "/></g></g></g><g fill="#ffffff" fill-opacity="1"><g transform="translate(283.268786, 180.80817)"><g><path d="M 6.453125 0 L 3.546875 0 L 3.546875 -9.03125 L 0.15625 -9.03125 L 0.15625 -11.296875 L 9.84375 -11.296875 L 9.84375 -9.03125 L 6.453125 -9.03125 Z M 6.453125 0 "/></g></g></g><g fill="#ffffff" fill-opacity="1"><g transform="translate(296.505713, 180.80817)"><g><path d="M 6.296875 0 L 0.484375 0 L 0.484375 -2.265625 L 1.9375 -2.265625 L 1.9375 -9.03125 L 0.484375 -9.03125 L 0.484375 -11.296875 L 6.296875 -11.296875 L 6.296875 -9.03125 L 4.84375 -9.03125 L 4.84375 -2.265625 L 6.296875 -2.265625 Z M 6.296875 0 "/></g></g></g><g fill="#ffffff" fill-opacity="1"><g transform="translate(306.514469, 180.80817)"><g><path d="M 8.234375 -8.234375 C 8.234375 -8.878906 7.910156 -9.203125 7.265625 -9.203125 L 4.515625 -9.203125 C 3.867188 -9.203125 3.546875 -8.878906 3.546875 -8.234375 L 3.546875 -3.0625 C 3.546875 -2.414062 3.867188 -2.09375 4.515625 -2.09375 L 7.265625 -2.09375 C 7.910156 -2.09375 8.234375 -2.414062 8.234375 -3.0625 Z M 11.140625 -3.0625 C 11.140625 -1.9375 10.882812 -1.117188 10.375 -0.609375 C 9.863281 -0.0976562 9.039062 0.15625 7.90625 0.15625 L 3.875 0.15625 C 2.738281 0.15625 1.914062 -0.0976562 1.40625 -0.609375 C 0.894531 -1.117188 0.640625 -1.9375 0.640625 -3.0625 L 0.640625 -8.234375 C 0.640625 -9.359375 0.894531 -10.175781 1.40625 -10.6875 C 1.914062 -11.195312 2.738281 -11.453125 3.875 -11.453125 L 7.90625 -11.453125 C 9.039062 -11.453125 9.863281 -11.195312 10.375 -10.6875 C 10.882812 -10.175781 11.140625 -9.359375 11.140625 -8.234375 Z M 11.140625 -3.0625 "/></g></g></g><g fill="#ffffff" fill-opacity="1"><g transform="translate(321.526879, 180.80817)"><g><path d="M 10.8125 0 L 7.75 0 L 3.875 -6.78125 L 3.875 0 L 0.96875 0 L 0.96875 -11.296875 L 4.03125 -11.296875 L 7.90625 -4.515625 L 7.90625 -11.296875 L 10.8125 -11.296875 Z M 10.8125 0 "/></g></g></g><g fill="#ffffff" fill-opacity="1"><g transform="translate(112.560789, 203.22199)"><g><path d="M 9.6875 -0.15625 C 7.28125 0.0507812 5.289062 0.15625 3.71875 0.15625 C 2.65625 0.15625 1.875 -0.0859375 1.375 -0.578125 C 0.882812 -1.078125 0.640625 -1.851562 0.640625 -2.90625 L 0.640625 -8.078125 C 0.640625 -9.203125 0.894531 -10.019531 1.40625 -10.53125 C 1.914062 -11.039062 2.738281 -11.296875 3.875 -11.296875 L 9.6875 -11.296875 L 9.6875 -9.03125 L 4.515625 -9.03125 C 3.867188 -9.03125 3.546875 -8.710938 3.546875 -8.078125 L 3.546875 -2.90625 C 3.546875 -2.65625 3.617188 -2.457031 3.765625 -2.3125 C 3.910156 -2.164062 4.097656 -2.09375 4.328125 -2.09375 C 4.554688 -2.09375 4.800781 -2.09375 5.0625 -2.09375 C 5.332031 -2.101562 5.613281 -2.113281 5.90625 -2.125 C 6.195312 -2.132812 6.488281 -2.144531 6.78125 -2.15625 C 7.082031 -2.164062 7.46875 -2.1875 7.9375 -2.21875 C 8.40625 -2.257812 8.988281 -2.300781 9.6875 -2.34375 Z M 9.6875 -0.15625 "/></g></g></g><g fill="#ffffff" fill-opacity="1"><g transform="translate(125.797711, 203.22199)"><g><path d="M 8.234375 -8.234375 C 8.234375 -8.878906 7.910156 -9.203125 7.265625 -9.203125 L 4.515625 -9.203125 C 3.867188 -9.203125 3.546875 -8.878906 3.546875 -8.234375 L 3.546875 -3.0625 C 3.546875 -2.414062 3.867188 -2.09375 4.515625 -2.09375 L 7.265625 -2.09375 C 7.910156 -2.09375 8.234375 -2.414062 8.234375 -3.0625 Z M 11.140625 -3.0625 C 11.140625 -1.9375 10.882812 -1.117188 10.375 -0.609375 C 9.863281 -0.0976562 9.039062 0.15625 7.90625 0.15625 L 3.875 0.15625 C 2.738281 0.15625 1.914062 -0.0976562 1.40625 -0.609375 C 0.894531 -1.117188 0.640625 -1.9375 0.640625 -3.0625 L 0.640625 -8.234375 C 0.640625 -9.359375 0.894531 -10.175781 1.40625 -10.6875 C 1.914062 -11.195312 2.738281 -11.453125 3.875 -11.453125 L 7.90625 -11.453125 C 9.039062 -11.453125 9.863281 -11.195312 10.375 -10.6875 C 10.882812 -10.175781 11.140625 -9.359375 11.140625 -8.234375 Z M 11.140625 -3.0625 "/></g></g></g><g fill="#ffffff" fill-opacity="1"><g transform="translate(140.810126, 203.22199)"><g><path d="M 8.234375 -11.296875 L 11.140625 -11.296875 L 11.140625 -3.0625 C 11.140625 -1.9375 10.882812 -1.117188 10.375 -0.609375 C 9.863281 -0.0976562 9.039062 0.15625 7.90625 0.15625 L 4.203125 0.15625 C 3.066406 0.15625 2.242188 -0.0976562 1.734375 -0.609375 C 1.222656 -1.117188 0.96875 -1.9375 0.96875 -3.0625 L 0.96875 -11.296875 L 3.875 -11.296875 L 3.875 -3.0625 C 3.875 -2.414062 4.195312 -2.09375 4.84375 -2.09375 L 7.265625 -2.09375 C 7.910156 -2.09375 8.234375 -2.414062 8.234375 -3.0625 Z M 8.234375 -11.296875 "/></g></g></g><g fill="#ffffff" fill-opacity="1"><g transform="translate(156.145357, 203.22199)"><g><path d="M 0.96875 -11.296875 L 7.75 -11.296875 C 8.875 -11.296875 9.691406 -11.039062 10.203125 -10.53125 C 10.710938 -10.019531 10.96875 -9.203125 10.96875 -8.078125 L 10.96875 -6.625 C 10.96875 -5.726562 10.820312 -5.03125 10.53125 -4.53125 C 10.238281 -4.039062 9.769531 -3.710938 9.125 -3.546875 L 11.140625 0 L 7.984375 0 L 6.140625 -3.390625 L 3.875 -3.390625 L 3.875 0 L 0.96875 0 Z M 8.078125 -8.078125 C 8.078125 -8.710938 7.753906 -9.03125 7.109375 -9.03125 L 3.875 -9.03125 L 3.875 -5.65625 L 7.109375 -5.65625 C 7.753906 -5.65625 8.078125 -5.976562 8.078125 -6.625 Z M 8.078125 -8.078125 "/></g></g></g><g fill="#ffffff" fill-opacity="1"><g transform="translate(170.996364, 203.22199)"><g><path d="M 0.625 -2.34375 C 3.570312 -2.175781 5.570312 -2.09375 6.625 -2.09375 C 6.863281 -2.09375 7.054688 -2.164062 7.203125 -2.3125 C 7.347656 -2.457031 7.421875 -2.65625 7.421875 -2.90625 L 7.421875 -4.359375 L 3.71875 -4.359375 C 2.582031 -4.359375 1.757812 -4.613281 1.25 -5.125 C 0.738281 -5.632812 0.484375 -6.457031 0.484375 -7.59375 L 0.484375 -8.078125 C 0.484375 -9.203125 0.738281 -10.019531 1.25 -10.53125 C 1.757812 -11.039062 2.582031 -11.296875 3.71875 -11.296875 L 9.375 -11.296875 L 9.375 -9.03125 L 4.359375 -9.03125 C 3.710938 -9.03125 3.390625 -8.710938 3.390625 -8.078125 L 3.390625 -7.75 C 3.390625 -7.101562 3.710938 -6.78125 4.359375 -6.78125 L 7.265625 -6.78125 C 8.316406 -6.78125 9.085938 -6.53125 9.578125 -6.03125 C 10.078125 -5.539062 10.328125 -4.769531 10.328125 -3.71875 L 10.328125 -2.90625 C 10.328125 -1.851562 10.078125 -1.078125 9.578125 -0.578125 C 9.085938 -0.0859375 8.316406 0.15625 7.265625 0.15625 C 6.710938 0.15625 6.128906 0.144531 5.515625 0.125 L 4.03125 0.0625 C 2.9375 0.0078125 1.800781 -0.0625 0.625 -0.15625 Z M 0.625 -2.34375 "/></g></g></g><g fill="#ffffff" fill-opacity="1"><g transform="translate(185.040323, 203.22199)"><g><path d="M 9.921875 0 L 0.96875 0 L 0.96875 -11.296875 L 9.921875 -11.296875 L 9.921875 -9.03125 L 3.875 -9.03125 L 3.875 -6.859375 L 8.640625 -6.859375 L 8.640625 -4.59375 L 3.875 -4.59375 L 3.875 -2.265625 L 9.921875 -2.265625 Z M 9.921875 0 "/></g></g></g></svg>