<svg xmlns="http://www.w3.org/2000/svg" xmlns:xlink="http://www.w3.org/1999/xlink" width="500" zoomAndPan="magnify" viewBox="0 0 375 374.999991" height="500" preserveAspectRatio="xMidYMid meet" version="1.0"><defs><g/><clipPath id="236abf2042"><path d="M 50 180 L 102 180 L 102 189 L 50 189 Z M 50 180 " clip-rule="nonzero"/></clipPath><clipPath id="e7ee746396"><path d="M 60 160 L 102 160 L 102 169 L 60 169 Z M 60 160 " clip-rule="nonzero"/></clipPath><clipPath id="e001add797"><path d="M 81 170 L 102 170 L 102 179 L 81 179 Z M 81 170 " clip-rule="nonzero"/></clipPath><clipPath id="7152a70519"><path d="M 37.5 180 L 47 180 L 47 189 L 37.5 189 Z M 37.5 180 " clip-rule="nonzero"/></clipPath><clipPath id="fcb709de94"><path d="M 62 189 L 102 189 L 102 198 L 62 198 Z M 62 189 " clip-rule="nonzero"/></clipPath><clipPath id="5f85aa9e7b"><path d="M 66 199 L 102 199 L 102 208 L 66 208 Z M 66 199 " clip-rule="nonzero"/></clipPath></defs><g clip-path="url(#236abf2042)"><path fill="#ffffff" d="M 124.265625 180.109375 L 82.75 180.109375 L 80.976562 183.171875 L 76.871094 183.171875 L 75.097656 180.109375 C 73.570312 180.109375 54.417969 180.109375 52.886719 180.109375 L 50.59375 184.078125 L 52.886719 188.050781 C 54.417969 188.050781 73.570312 188.050781 75.097656 188.050781 L 76.871094 184.984375 L 80.976562 184.984375 L 82.75 188.050781 L 124.265625 188.050781 C 124.722656 185.425781 124.722656 182.738281 124.265625 180.109375 Z M 124.265625 180.109375 " fill-opacity="1" fill-rule="nonzero"/></g><g clip-path="url(#e7ee746396)"><path fill="#ffffff" d="M 67.269531 168.523438 L 69.039062 165.460938 L 73.144531 165.460938 L 74.917969 168.523438 L 118.6875 168.523438 C 110.460938 159.25 101.234375 160.574219 90.109375 160.574219 L 74.917969 160.574219 L 73.144531 163.640625 L 69.039062 163.640625 L 67.269531 160.574219 L 62.683594 160.574219 L 60.390625 164.546875 L 62.683594 168.515625 L 67.269531 168.515625 Z M 67.269531 168.523438 " fill-opacity="1" fill-rule="nonzero"/></g><g clip-path="url(#e001add797)"><path fill="#ffffff" d="M 94.6875 173.410156 L 90.582031 173.410156 L 88.808594 170.34375 L 84.222656 170.34375 L 81.929688 174.316406 L 84.222656 178.289062 L 88.808594 178.289062 L 90.582031 175.222656 L 94.6875 175.222656 L 96.460938 178.289062 L 123.878906 178.289062 C 123.136719 175.386719 121.855469 172.703125 120.144531 170.335938 L 96.460938 170.335938 Z M 94.6875 173.410156 " fill-opacity="1" fill-rule="nonzero"/></g><g clip-path="url(#7152a70519)"><path fill="#ffffff" d="M 39.792969 180.109375 L 37.5 184.078125 L 39.792969 188.058594 L 44.386719 188.058594 L 46.679688 184.078125 L 44.386719 180.109375 Z M 39.792969 180.109375 " fill-opacity="1" fill-rule="nonzero"/></g><path fill="#ffffff" d="M 68.835938 174.316406 L 71.128906 178.289062 L 75.722656 178.289062 L 78.015625 174.316406 L 75.722656 170.34375 L 71.128906 170.34375 Z M 68.835938 174.316406 " fill-opacity="1" fill-rule="nonzero"/><path fill="#ffffff" d="M 55.464844 199.632812 L 53.164062 203.609375 L 55.464844 207.582031 L 60.050781 207.582031 L 62.34375 203.609375 L 60.050781 199.632812 Z M 55.464844 199.632812 " fill-opacity="1" fill-rule="nonzero"/><g clip-path="url(#fcb709de94)"><path fill="#ffffff" d="M 75.097656 192.933594 L 70.996094 192.933594 L 69.222656 189.871094 L 64.636719 189.871094 L 62.34375 193.839844 L 64.636719 197.8125 L 69.222656 197.8125 L 70.996094 194.746094 L 75.097656 194.746094 L 76.871094 197.8125 L 120.136719 197.8125 C 121.847656 195.449219 123.128906 192.761719 123.871094 189.863281 C 109.507812 189.863281 91.226562 189.863281 76.863281 189.863281 Z M 75.097656 192.933594 " fill-opacity="1" fill-rule="nonzero"/></g><g clip-path="url(#5f85aa9e7b)"><path fill="#ffffff" d="M 86.855469 202.703125 L 82.75 202.703125 L 80.976562 199.640625 C 76.839844 199.640625 72.695312 199.640625 68.550781 199.640625 L 66.257812 203.609375 L 68.550781 207.582031 C 72.695312 207.582031 76.832031 207.582031 80.976562 207.582031 L 82.75 204.515625 L 86.855469 204.515625 L 88.628906 207.582031 C 100.375 207.582031 110.25 209.148438 118.6875 199.632812 L 88.628906 199.632812 Z M 86.855469 202.703125 " fill-opacity="1" fill-rule="nonzero"/></g><g fill="#ffffff" fill-opacity="1"><g transform="translate(115.158674, 174.749989)"><g><path d="M 5.453125 -8.46875 C 6.359375 -8.46875 7.046875 -8.234375 7.515625 -7.765625 C 7.992188 -7.296875 8.234375 -6.601562 8.234375 -5.6875 L 8.234375 -2.78125 C 8.234375 -1.875 7.992188 -1.179688 7.515625 -0.703125 C 7.046875 -0.234375 6.359375 0 5.453125 0 L 0.71875 0 L 0.71875 -8.46875 Z M 6.046875 -5.6875 C 6.046875 -6.414062 5.6875 -6.78125 4.96875 -6.78125 L 2.90625 -6.78125 L 2.90625 -1.6875 L 4.96875 -1.6875 C 5.6875 -1.6875 6.046875 -2.050781 6.046875 -2.78125 Z M 6.046875 -5.6875 "/></g></g></g><g fill="#ffffff" fill-opacity="1"><g transform="translate(126.287361, 174.749989)"><g><path d="M 2.234375 0 L -0.125 0 L 3.09375 -8.46875 L 5.515625 -8.46875 L 8.71875 0 L 6.359375 0 L 5.8125 -1.515625 L 2.78125 -1.515625 Z M 3.328125 -3.09375 L 5.265625 -3.09375 L 4.296875 -5.9375 Z M 3.328125 -3.09375 "/></g></g></g><g fill="#ffffff" fill-opacity="1"><g transform="translate(137.295118, 174.749989)"><g><path d="M 4.84375 0 L 2.65625 0 L 2.65625 -6.78125 L 0.125 -6.78125 L 0.125 -8.46875 L 7.390625 -8.46875 L 7.390625 -6.78125 L 4.84375 -6.78125 Z M 4.84375 0 "/></g></g></g><g fill="#ffffff" fill-opacity="1"><g transform="translate(147.21444, 174.749989)"><g><path d="M 2.234375 0 L -0.125 0 L 3.09375 -8.46875 L 5.515625 -8.46875 L 8.71875 0 L 6.359375 0 L 5.8125 -1.515625 L 2.78125 -1.515625 Z M 3.328125 -3.09375 L 5.265625 -3.09375 L 4.296875 -5.9375 Z M 3.328125 -3.09375 "/></g></g></g><g fill="#ffffff" fill-opacity="1"><g transform="translate(158.222196, 174.749989)"><g/></g></g><g fill="#ffffff" fill-opacity="1"><g transform="translate(164.271528, 174.749989)"><g><path d="M 2.234375 0 L -0.125 0 L 3.09375 -8.46875 L 5.515625 -8.46875 L 8.71875 0 L 6.359375 0 L 5.8125 -1.515625 L 2.78125 -1.515625 Z M 3.328125 -3.09375 L 5.265625 -3.09375 L 4.296875 -5.9375 Z M 3.328125 -3.09375 "/></g></g></g><g fill="#ffffff" fill-opacity="1"><g transform="translate(175.279285, 174.749989)"><g><path d="M 8.109375 0 L 5.8125 0 L 2.90625 -5.078125 L 2.90625 0 L 0.71875 0 L 0.71875 -8.46875 L 3.03125 -8.46875 L 5.9375 -3.390625 L 5.9375 -8.46875 L 8.109375 -8.46875 Z M 8.109375 0 "/></g></g></g><g fill="#ffffff" fill-opacity="1"><g transform="translate(186.528912, 174.749989)"><g><path d="M 2.234375 0 L -0.125 0 L 3.09375 -8.46875 L 5.515625 -8.46875 L 8.71875 0 L 6.359375 0 L 5.8125 -1.515625 L 2.78125 -1.515625 Z M 3.328125 -3.09375 L 5.265625 -3.09375 L 4.296875 -5.9375 Z M 3.328125 -3.09375 "/></g></g></g><g fill="#ffffff" fill-opacity="1"><g transform="translate(197.536669, 174.749989)"><g><path d="M 2.90625 -1.6875 L 7.328125 -1.6875 L 7.328125 0 L 0.71875 0 L 0.71875 -8.46875 L 2.90625 -8.46875 Z M 2.90625 -1.6875 "/></g></g></g><g fill="#ffffff" fill-opacity="1"><g transform="translate(207.395518, 174.749989)"><g><path d="M -0.234375 -8.46875 L 2.0625 -8.46875 L 4.0625 -4.359375 L 6.046875 -8.46875 L 8.359375 -8.46875 L 5.140625 -2.234375 L 5.140625 0 L 2.96875 0 L 2.96875 -2.234375 Z M -0.234375 -8.46875 "/></g></g></g><g fill="#ffffff" fill-opacity="1"><g transform="translate(217.919527, 174.749989)"><g><path d="M 0.46875 -1.75 C 2.6875 -1.632812 4.1875 -1.578125 4.96875 -1.578125 C 5.15625 -1.578125 5.300781 -1.628906 5.40625 -1.734375 C 5.507812 -1.847656 5.5625 -1.992188 5.5625 -2.171875 L 5.5625 -3.265625 L 2.78125 -3.265625 C 1.9375 -3.265625 1.320312 -3.457031 0.9375 -3.84375 C 0.550781 -4.226562 0.359375 -4.84375 0.359375 -5.6875 L 0.359375 -6.046875 C 0.359375 -6.898438 0.550781 -7.515625 0.9375 -7.890625 C 1.320312 -8.273438 1.9375 -8.46875 2.78125 -8.46875 L 7.03125 -8.46875 L 7.03125 -6.78125 L 3.265625 -6.78125 C 2.785156 -6.78125 2.546875 -6.535156 2.546875 -6.046875 L 2.546875 -5.8125 C 2.546875 -5.320312 2.785156 -5.078125 3.265625 -5.078125 L 5.453125 -5.078125 C 6.242188 -5.078125 6.820312 -4.890625 7.1875 -4.515625 C 7.5625 -4.148438 7.75 -3.570312 7.75 -2.78125 L 7.75 -2.171875 C 7.75 -1.390625 7.5625 -0.8125 7.1875 -0.4375 C 6.820312 -0.0625 6.242188 0.125 5.453125 0.125 C 5.035156 0.125 4.597656 0.113281 4.140625 0.09375 L 3.03125 0.046875 C 2.207031 0.00390625 1.351562 -0.0507812 0.46875 -0.125 Z M 0.46875 -1.75 "/></g></g></g><g fill="#ffffff" fill-opacity="1"><g transform="translate(228.443536, 174.749989)"><g><path d="M 4.71875 0 L 0.359375 0 L 0.359375 -1.6875 L 1.453125 -1.6875 L 1.453125 -6.78125 L 0.359375 -6.78125 L 0.359375 -8.46875 L 4.71875 -8.46875 L 4.71875 -6.78125 L 3.625 -6.78125 L 3.625 -1.6875 L 4.71875 -1.6875 Z M 4.71875 0 "/></g></g></g><g fill="#ffffff" fill-opacity="1"><g transform="translate(235.94412, 174.749989)"><g><path d="M 0.46875 -1.75 C 2.6875 -1.632812 4.1875 -1.578125 4.96875 -1.578125 C 5.15625 -1.578125 5.300781 -1.628906 5.40625 -1.734375 C 5.507812 -1.847656 5.5625 -1.992188 5.5625 -2.171875 L 5.5625 -3.265625 L 2.78125 -3.265625 C 1.9375 -3.265625 1.320312 -3.457031 0.9375 -3.84375 C 0.550781 -4.226562 0.359375 -4.84375 0.359375 -5.6875 L 0.359375 -6.046875 C 0.359375 -6.898438 0.550781 -7.515625 0.9375 -7.890625 C 1.320312 -8.273438 1.9375 -8.46875 2.78125 -8.46875 L 7.03125 -8.46875 L 7.03125 -6.78125 L 3.265625 -6.78125 C 2.785156 -6.78125 2.546875 -6.535156 2.546875 -6.046875 L 2.546875 -5.8125 C 2.546875 -5.320312 2.785156 -5.078125 3.265625 -5.078125 L 5.453125 -5.078125 C 6.242188 -5.078125 6.820312 -4.890625 7.1875 -4.515625 C 7.5625 -4.148438 7.75 -3.570312 7.75 -2.78125 L 7.75 -2.171875 C 7.75 -1.390625 7.5625 -0.8125 7.1875 -0.4375 C 6.820312 -0.0625 6.242188 0.125 5.453125 0.125 C 5.035156 0.125 4.597656 0.113281 4.140625 0.09375 L 3.03125 0.046875 C 2.207031 0.00390625 1.351562 -0.0507812 0.46875 -0.125 Z M 0.46875 -1.75 "/></g></g></g><g fill="#ffffff" fill-opacity="1"><g transform="translate(246.468129, 174.749989)"><g/></g></g><g fill="#ffffff" fill-opacity="1"><g transform="translate(252.517464, 174.749989)"><g><path d="M 6.90625 -8.46875 L 8.359375 -3.03125 L 9.625 -8.46875 L 11.984375 -8.46875 L 9.6875 0 L 7.390625 0 L 5.9375 -5.265625 L 4.484375 0 L 2.171875 0 L -0.125 -8.46875 L 2.234375 -8.46875 L 3.515625 -3.03125 L 4.96875 -8.46875 Z M 6.90625 -8.46875 "/></g></g></g><g fill="#ffffff" fill-opacity="1"><g transform="translate(266.790522, 174.749989)"><g><path d="M 4.71875 0 L 0.359375 0 L 0.359375 -1.6875 L 1.453125 -1.6875 L 1.453125 -6.78125 L 0.359375 -6.78125 L 0.359375 -8.46875 L 4.71875 -8.46875 L 4.71875 -6.78125 L 3.625 -6.78125 L 3.625 -1.6875 L 4.71875 -1.6875 Z M 4.71875 0 "/></g></g></g><g fill="#ffffff" fill-opacity="1"><g transform="translate(274.291105, 174.749989)"><g><path d="M 4.84375 0 L 2.65625 0 L 2.65625 -6.78125 L 0.125 -6.78125 L 0.125 -8.46875 L 7.390625 -8.46875 L 7.390625 -6.78125 L 4.84375 -6.78125 Z M 4.84375 0 "/></g></g></g><g fill="#ffffff" fill-opacity="1"><g transform="translate(284.210431, 174.749989)"><g><path d="M 8.109375 0 L 5.9375 0 L 5.9375 -3.453125 L 2.90625 -3.453125 L 2.90625 0 L 0.71875 0 L 0.71875 -8.46875 L 2.90625 -8.46875 L 2.90625 -5.140625 L 5.9375 -5.140625 L 5.9375 -8.46875 L 8.109375 -8.46875 Z M 8.109375 0 "/></g></g></g><g fill="#ffffff" fill-opacity="1"><g transform="translate(115.158674, 191.249987)"><g><path d="M 0.71875 -8.46875 L 5.8125 -8.46875 C 6.65625 -8.46875 7.269531 -8.273438 7.65625 -7.890625 C 8.039062 -7.515625 8.234375 -6.898438 8.234375 -6.046875 L 8.234375 -4.84375 C 8.234375 -4 8.039062 -3.382812 7.65625 -3 C 7.269531 -2.613281 6.65625 -2.421875 5.8125 -2.421875 L 2.90625 -2.421875 L 2.90625 0 L 0.71875 0 Z M 6.046875 -6.046875 C 6.046875 -6.535156 5.804688 -6.78125 5.328125 -6.78125 L 2.90625 -6.78125 L 2.90625 -4.109375 L 5.328125 -4.109375 C 5.804688 -4.109375 6.046875 -4.351562 6.046875 -4.84375 Z M 6.046875 -6.046875 "/></g></g></g><g fill="#ffffff" fill-opacity="1"><g transform="translate(126.166431, 191.249987)"><g><path d="M -0.234375 -8.46875 L 2.0625 -8.46875 L 4.0625 -4.359375 L 6.046875 -8.46875 L 8.359375 -8.46875 L 5.140625 -2.234375 L 5.140625 0 L 2.96875 0 L 2.96875 -2.234375 Z M -0.234375 -8.46875 "/></g></g></g><g fill="#ffffff" fill-opacity="1"><g transform="translate(136.690435, 191.249987)"><g><path d="M 4.84375 0 L 2.65625 0 L 2.65625 -6.78125 L 0.125 -6.78125 L 0.125 -8.46875 L 7.390625 -8.46875 L 7.390625 -6.78125 L 4.84375 -6.78125 Z M 4.84375 0 "/></g></g></g><g fill="#ffffff" fill-opacity="1"><g transform="translate(146.609757, 191.249987)"><g><path d="M 8.109375 0 L 5.9375 0 L 5.9375 -3.453125 L 2.90625 -3.453125 L 2.90625 0 L 0.71875 0 L 0.71875 -8.46875 L 2.90625 -8.46875 L 2.90625 -5.140625 L 5.9375 -5.140625 L 5.9375 -8.46875 L 8.109375 -8.46875 Z M 8.109375 0 "/></g></g></g><g fill="#ffffff" fill-opacity="1"><g transform="translate(157.859384, 191.249987)"><g><path d="M 6.171875 -6.171875 C 6.171875 -6.660156 5.929688 -6.90625 5.453125 -6.90625 L 3.390625 -6.90625 C 2.898438 -6.90625 2.65625 -6.660156 2.65625 -6.171875 L 2.65625 -2.296875 C 2.65625 -1.816406 2.898438 -1.578125 3.390625 -1.578125 L 5.453125 -1.578125 C 5.929688 -1.578125 6.171875 -1.816406 6.171875 -2.296875 Z M 8.359375 -2.296875 C 8.359375 -1.453125 8.164062 -0.835938 7.78125 -0.453125 C 7.394531 -0.0664062 6.78125 0.125 5.9375 0.125 L 2.90625 0.125 C 2.0625 0.125 1.445312 -0.0664062 1.0625 -0.453125 C 0.675781 -0.835938 0.484375 -1.453125 0.484375 -2.296875 L 0.484375 -6.171875 C 0.484375 -7.023438 0.675781 -7.640625 1.0625 -8.015625 C 1.445312 -8.398438 2.0625 -8.59375 2.90625 -8.59375 L 5.9375 -8.59375 C 6.78125 -8.59375 7.394531 -8.398438 7.78125 -8.015625 C 8.164062 -7.640625 8.359375 -7.023438 8.359375 -6.171875 Z M 8.359375 -2.296875 "/></g></g></g><g fill="#ffffff" fill-opacity="1"><g transform="translate(169.109014, 191.249987)"><g><path d="M 8.109375 0 L 5.8125 0 L 2.90625 -5.078125 L 2.90625 0 L 0.71875 0 L 0.71875 -8.46875 L 3.03125 -8.46875 L 5.9375 -3.390625 L 5.9375 -8.46875 L 8.109375 -8.46875 Z M 8.109375 0 "/></g></g></g><g fill="#ffffff" fill-opacity="1"><g transform="translate(180.358642, 191.249987)"><g/></g></g><g fill="#ffffff" fill-opacity="1"><g transform="translate(186.407971, 191.249987)"><g><path d="M 7.265625 -0.125 C 5.460938 0.0390625 3.96875 0.125 2.78125 0.125 C 1.988281 0.125 1.40625 -0.0625 1.03125 -0.4375 C 0.664062 -0.8125 0.484375 -1.390625 0.484375 -2.171875 L 0.484375 -6.046875 C 0.484375 -6.898438 0.675781 -7.515625 1.0625 -7.890625 C 1.445312 -8.273438 2.0625 -8.46875 2.90625 -8.46875 L 7.265625 -8.46875 L 7.265625 -6.78125 L 3.390625 -6.78125 C 2.898438 -6.78125 2.65625 -6.535156 2.65625 -6.046875 L 2.65625 -2.171875 C 2.65625 -1.992188 2.707031 -1.847656 2.8125 -1.734375 C 2.925781 -1.628906 3.066406 -1.578125 3.234375 -1.578125 C 3.410156 -1.578125 3.597656 -1.578125 3.796875 -1.578125 C 4.003906 -1.585938 4.21875 -1.59375 4.4375 -1.59375 C 4.65625 -1.601562 4.875 -1.613281 5.09375 -1.625 C 5.3125 -1.632812 5.597656 -1.648438 5.953125 -1.671875 C 6.304688 -1.691406 6.742188 -1.71875 7.265625 -1.75 Z M 7.265625 -0.125 "/></g></g></g><g fill="#ffffff" fill-opacity="1"><g transform="translate(196.327291, 191.249987)"><g><path d="M 6.171875 -6.171875 C 6.171875 -6.660156 5.929688 -6.90625 5.453125 -6.90625 L 3.390625 -6.90625 C 2.898438 -6.90625 2.65625 -6.660156 2.65625 -6.171875 L 2.65625 -2.296875 C 2.65625 -1.816406 2.898438 -1.578125 3.390625 -1.578125 L 5.453125 -1.578125 C 5.929688 -1.578125 6.171875 -1.816406 6.171875 -2.296875 Z M 8.359375 -2.296875 C 8.359375 -1.453125 8.164062 -0.835938 7.78125 -0.453125 C 7.394531 -0.0664062 6.78125 0.125 5.9375 0.125 L 2.90625 0.125 C 2.0625 0.125 1.445312 -0.0664062 1.0625 -0.453125 C 0.675781 -0.835938 0.484375 -1.453125 0.484375 -2.296875 L 0.484375 -6.171875 C 0.484375 -7.023438 0.675781 -7.640625 1.0625 -8.015625 C 1.445312 -8.398438 2.0625 -8.59375 2.90625 -8.59375 L 5.9375 -8.59375 C 6.78125 -8.59375 7.394531 -8.398438 7.78125 -8.015625 C 8.164062 -7.640625 8.359375 -7.023438 8.359375 -6.171875 Z M 8.359375 -2.296875 "/></g></g></g><g fill="#ffffff" fill-opacity="1"><g transform="translate(207.576919, 191.249987)"><g><path d="M 6.171875 -8.46875 L 8.359375 -8.46875 L 8.359375 -2.296875 C 8.359375 -1.453125 8.164062 -0.835938 7.78125 -0.453125 C 7.394531 -0.0664062 6.78125 0.125 5.9375 0.125 L 3.140625 0.125 C 2.296875 0.125 1.679688 -0.0664062 1.296875 -0.453125 C 0.910156 -0.835938 0.71875 -1.453125 0.71875 -2.296875 L 0.71875 -8.46875 L 2.90625 -8.46875 L 2.90625 -2.296875 C 2.90625 -1.816406 3.144531 -1.578125 3.625 -1.578125 L 5.453125 -1.578125 C 5.929688 -1.578125 6.171875 -1.816406 6.171875 -2.296875 Z M 6.171875 -8.46875 "/></g></g></g><g fill="#ffffff" fill-opacity="1"><g transform="translate(219.068423, 191.249987)"><g><path d="M 0.71875 -8.46875 L 5.8125 -8.46875 C 6.65625 -8.46875 7.269531 -8.273438 7.65625 -7.890625 C 8.039062 -7.515625 8.234375 -6.898438 8.234375 -6.046875 L 8.234375 -4.96875 C 8.234375 -4.289062 8.117188 -3.765625 7.890625 -3.390625 C 7.671875 -3.023438 7.320312 -2.78125 6.84375 -2.65625 L 8.359375 0 L 6 0 L 4.59375 -2.546875 L 2.90625 -2.546875 L 2.90625 0 L 0.71875 0 Z M 6.046875 -6.046875 C 6.046875 -6.535156 5.804688 -6.78125 5.328125 -6.78125 L 2.90625 -6.78125 L 2.90625 -4.234375 L 5.328125 -4.234375 C 5.804688 -4.234375 6.046875 -4.476562 6.046875 -4.96875 Z M 6.046875 -6.046875 "/></g></g></g><g fill="#ffffff" fill-opacity="1"><g transform="translate(230.197114, 191.249987)"><g><path d="M 0.46875 -1.75 C 2.6875 -1.632812 4.1875 -1.578125 4.96875 -1.578125 C 5.15625 -1.578125 5.300781 -1.628906 5.40625 -1.734375 C 5.507812 -1.847656 5.5625 -1.992188 5.5625 -2.171875 L 5.5625 -3.265625 L 2.78125 -3.265625 C 1.9375 -3.265625 1.320312 -3.457031 0.9375 -3.84375 C 0.550781 -4.226562 0.359375 -4.84375 0.359375 -5.6875 L 0.359375 -6.046875 C 0.359375 -6.898438 0.550781 -7.515625 0.9375 -7.890625 C 1.320312 -8.273438 1.9375 -8.46875 2.78125 -8.46875 L 7.03125 -8.46875 L 7.03125 -6.78125 L 3.265625 -6.78125 C 2.785156 -6.78125 2.546875 -6.535156 2.546875 -6.046875 L 2.546875 -5.8125 C 2.546875 -5.320312 2.785156 -5.078125 3.265625 -5.078125 L 5.453125 -5.078125 C 6.242188 -5.078125 6.820312 -4.890625 7.1875 -4.515625 C 7.5625 -4.148438 7.75 -3.570312 7.75 -2.78125 L 7.75 -2.171875 C 7.75 -1.390625 7.5625 -0.8125 7.1875 -0.4375 C 6.820312 -0.0625 6.242188 0.125 5.453125 0.125 C 5.035156 0.125 4.597656 0.113281 4.140625 0.09375 L 3.03125 0.046875 C 2.207031 0.00390625 1.351562 -0.0507812 0.46875 -0.125 Z M 0.46875 -1.75 "/></g></g></g><g fill="#ffffff" fill-opacity="1"><g transform="translate(240.721123, 191.249987)"><g><path d="M 7.453125 0 L 0.71875 0 L 0.71875 -8.46875 L 7.453125 -8.46875 L 7.453125 -6.78125 L 2.90625 -6.78125 L 2.90625 -5.140625 L 6.484375 -5.140625 L 6.484375 -3.453125 L 2.90625 -3.453125 L 2.90625 -1.6875 L 7.453125 -1.6875 Z M 7.453125 0 "/></g></g></g></svg>