<svg xmlns="http://www.w3.org/2000/svg" xmlns:xlink="http://www.w3.org/1999/xlink" width="500" zoomAndPan="magnify" viewBox="0 0 375 374.999991" height="500" preserveAspectRatio="xMidYMid meet" version="1.0"><defs><g/><clipPath id="d9e99b8145"><path d="M 50 180 L 102 180 L 102 189 L 50 189 Z M 50 180 " clip-rule="nonzero"/></clipPath><clipPath id="387fba2806"><path d="M 60 160 L 102 160 L 102 169 L 60 169 Z M 60 160 " clip-rule="nonzero"/></clipPath><clipPath id="78d8422694"><path d="M 81 170 L 102 170 L 102 179 L 81 179 Z M 81 170 " clip-rule="nonzero"/></clipPath><clipPath id="1884328167"><path d="M 37.5 180 L 47 180 L 47 189 L 37.5 189 Z M 37.5 180 " clip-rule="nonzero"/></clipPath><clipPath id="c6880c5500"><path d="M 62 189 L 102 189 L 102 198 L 62 198 Z M 62 189 " clip-rule="nonzero"/></clipPath><clipPath id="bf871b7d32"><path d="M 66 199 L 102 199 L 102 208 L 66 208 Z M 66 199 " clip-rule="nonzero"/></clipPath></defs><g clip-path="url(#d9e99b8145)"><path fill="#ffffff" d="M 124.265625 180.109375 L 82.75 180.109375 L 80.976562 183.171875 L 76.871094 183.171875 L 75.097656 180.109375 C 73.570312 180.109375 54.417969 180.109375 52.886719 180.109375 L 50.59375 184.078125 L 52.886719 188.050781 C 54.417969 188.050781 73.570312 188.050781 75.097656 188.050781 L 76.871094 184.984375 L 80.976562 184.984375 L 82.75 188.050781 L 124.265625 188.050781 C 124.722656 185.425781 124.722656 182.738281 124.265625 180.109375 Z M 124.265625 180.109375 " fill-opacity="1" fill-rule="nonzero"/></g><g clip-path="url(#387fba2806)"><path fill="#ffffff" d="M 67.269531 168.523438 L 69.039062 165.460938 L 73.144531 165.460938 L 74.917969 168.523438 L 118.6875 168.523438 C 110.460938 159.25 101.234375 160.574219 90.109375 160.574219 L 74.917969 160.574219 L 73.144531 163.640625 L 69.039062 163.640625 L 67.269531 160.574219 L 62.683594 160.574219 L 60.390625 164.546875 L 62.683594 168.515625 L 67.269531 168.515625 Z M 67.269531 168.523438 " fill-opacity="1" fill-rule="nonzero"/></g><g clip-path="url(#78d8422694)"><path fill="#ffffff" d="M 94.6875 173.410156 L 90.582031 173.410156 L 88.808594 170.34375 L 84.222656 170.34375 L 81.929688 174.316406 L 84.222656 178.289062 L 88.808594 178.289062 L 90.582031 175.222656 L 94.6875 175.222656 L 96.460938 178.289062 L 123.878906 178.289062 C 123.136719 175.386719 121.855469 172.703125 120.144531 170.335938 L 96.460938 170.335938 Z M 94.6875 173.410156 " fill-opacity="1" fill-rule="nonzero"/></g><g clip-path="url(#1884328167)"><path fill="#ffffff" d="M 39.792969 180.109375 L 37.5 184.078125 L 39.792969 188.058594 L 44.386719 188.058594 L 46.679688 184.078125 L 44.386719 180.109375 Z M 39.792969 180.109375 " fill-opacity="1" fill-rule="nonzero"/></g><path fill="#ffffff" d="M 68.835938 174.316406 L 71.128906 178.289062 L 75.722656 178.289062 L 78.015625 174.316406 L 75.722656 170.34375 L 71.128906 170.34375 Z M 68.835938 174.316406 " fill-opacity="1" fill-rule="nonzero"/><path fill="#ffffff" d="M 55.464844 199.632812 L 53.164062 203.609375 L 55.464844 207.582031 L 60.050781 207.582031 L 62.34375 203.609375 L 60.050781 199.632812 Z M 55.464844 199.632812 " fill-opacity="1" fill-rule="nonzero"/><g clip-path="url(#c6880c5500)"><path fill="#ffffff" d="M 75.097656 192.933594 L 70.996094 192.933594 L 69.222656 189.871094 L 64.636719 189.871094 L 62.34375 193.839844 L 64.636719 197.8125 L 69.222656 197.8125 L 70.996094 194.746094 L 75.097656 194.746094 L 76.871094 197.8125 L 120.136719 197.8125 C 121.847656 195.449219 123.128906 192.761719 123.871094 189.863281 C 109.507812 189.863281 91.226562 189.863281 76.863281 189.863281 Z M 75.097656 192.933594 " fill-opacity="1" fill-rule="nonzero"/></g><g clip-path="url(#bf871b7d32)"><path fill="#ffffff" d="M 86.855469 202.703125 L 82.75 202.703125 L 80.976562 199.640625 C 76.839844 199.640625 72.695312 199.640625 68.550781 199.640625 L 66.257812 203.609375 L 68.550781 207.582031 C 72.695312 207.582031 76.832031 207.582031 80.976562 207.582031 L 82.75 204.515625 L 86.855469 204.515625 L 88.628906 207.582031 C 100.375 207.582031 110.25 209.148438 118.6875 199.632812 L 88.628906 199.632812 Z M 86.855469 202.703125 " fill-opacity="1" fill-rule="nonzero"/></g><g fill="#ffffff" fill-opacity="1"><g transform="translate(112.560789, 175.624872)"><g><path d="M 9.375 -12.859375 L 12.671875 -12.859375 L 12.671875 -3.484375 C 12.671875 -2.203125 12.378906 -1.269531 11.796875 -0.6875 C 11.222656 -0.101562 10.289062 0.1875 9 0.1875 L 4.78125 0.1875 C 3.488281 0.1875 2.550781 -0.101562 1.96875 -0.6875 C 1.394531 -1.269531 1.109375 -2.203125 1.109375 -3.484375 L 1.109375 -12.859375 L 4.40625 -12.859375 L 4.40625 -3.484375 C 4.40625 -2.753906 4.773438 -2.390625 5.515625 -2.390625 L 8.265625 -2.390625 C 9.003906 -2.390625 9.375 -2.753906 9.375 -3.484375 Z M 9.375 -12.859375 "/></g></g></g><g fill="#ffffff" fill-opacity="1"><g transform="translate(129.999593, 175.624872)"><g><path d="M 7.171875 0 L 0.546875 0 L 0.546875 -2.578125 L 2.203125 -2.578125 L 2.203125 -10.296875 L 0.546875 -10.296875 L 0.546875 -12.859375 L 7.171875 -12.859375 L 7.171875 -10.296875 L 5.515625 -10.296875 L 5.515625 -2.578125 L 7.171875 -2.578125 Z M 7.171875 0 "/></g></g></g><g fill="#ffffff" fill-opacity="1"><g transform="translate(141.382017, 175.624872)"><g><path d="M 0 0 L 5.515625 -12.859375 L 8.640625 -12.859375 L 3.3125 0 Z M 0 0 "/></g></g></g><g fill="#ffffff" fill-opacity="1"><g transform="translate(153.682072, 175.624872)"><g><path d="M 9.375 -12.859375 L 12.671875 -12.859375 L 12.671875 -3.484375 C 12.671875 -2.203125 12.378906 -1.269531 11.796875 -0.6875 C 11.222656 -0.101562 10.289062 0.1875 9 0.1875 L 4.78125 0.1875 C 3.488281 0.1875 2.550781 -0.101562 1.96875 -0.6875 C 1.394531 -1.269531 1.109375 -2.203125 1.109375 -3.484375 L 1.109375 -12.859375 L 4.40625 -12.859375 L 4.40625 -3.484375 C 4.40625 -2.753906 4.773438 -2.390625 5.515625 -2.390625 L 8.265625 -2.390625 C 9.003906 -2.390625 9.375 -2.753906 9.375 -3.484375 Z M 9.375 -12.859375 "/></g></g></g><g fill="#ffffff" fill-opacity="1"><g transform="translate(171.120874, 175.624872)"><g><path d="M 8.546875 -12.859375 L 12.21875 -12.859375 L 8.078125 -6.4375 L 12.3125 0 L 8.640625 0 L 6.0625 -4.046875 L 3.484375 0 L -0.1875 0 L 4.046875 -6.4375 L -0.09375 -12.859375 L 3.5625 -12.859375 L 6.0625 -8.8125 Z M 8.546875 -12.859375 "/></g></g></g><g fill="#ffffff" fill-opacity="1"><g transform="translate(186.914293, 175.624872)"><g/></g></g><g fill="#ffffff" fill-opacity="1"><g transform="translate(112.560789, 200.664272)"><g><path d="M 8.265625 -12.859375 C 9.648438 -12.859375 10.703125 -12.5 11.421875 -11.78125 C 12.140625 -11.070312 12.5 -10.023438 12.5 -8.640625 L 12.5 -4.21875 C 12.5 -2.84375 12.140625 -1.796875 11.421875 -1.078125 C 10.703125 -0.359375 9.648438 0 8.265625 0 L 1.109375 0 L 1.109375 -12.859375 Z M 9.1875 -8.640625 C 9.1875 -9.742188 8.632812 -10.296875 7.53125 -10.296875 L 4.40625 -10.296875 L 4.40625 -2.578125 L 7.53125 -2.578125 C 8.632812 -2.578125 9.1875 -3.125 9.1875 -4.21875 Z M 9.1875 -8.640625 "/></g></g></g><g fill="#ffffff" fill-opacity="1"><g transform="translate(129.449011, 200.664272)"><g><path d="M 11.296875 0 L 1.109375 0 L 1.109375 -12.859375 L 11.296875 -12.859375 L 11.296875 -10.296875 L 4.40625 -10.296875 L 4.40625 -7.8125 L 9.828125 -7.8125 L 9.828125 -5.234375 L 4.40625 -5.234375 L 4.40625 -2.578125 L 11.296875 -2.578125 Z M 11.296875 0 "/></g></g></g><g fill="#ffffff" fill-opacity="1"><g transform="translate(144.777255, 200.664272)"><g><path d="M 0.71875 -2.671875 C 4.070312 -2.484375 6.34375 -2.390625 7.53125 -2.390625 C 7.8125 -2.390625 8.035156 -2.472656 8.203125 -2.640625 C 8.367188 -2.804688 8.453125 -3.03125 8.453125 -3.3125 L 8.453125 -4.96875 L 4.21875 -4.96875 C 2.9375 -4.96875 2.003906 -5.253906 1.421875 -5.828125 C 0.835938 -6.410156 0.546875 -7.347656 0.546875 -8.640625 L 0.546875 -9.1875 C 0.546875 -10.46875 0.835938 -11.398438 1.421875 -11.984375 C 2.003906 -12.566406 2.9375 -12.859375 4.21875 -12.859375 L 10.671875 -12.859375 L 10.671875 -10.296875 L 4.96875 -10.296875 C 4.226562 -10.296875 3.859375 -9.925781 3.859375 -9.1875 L 3.859375 -8.8125 C 3.859375 -8.082031 4.226562 -7.71875 4.96875 -7.71875 L 8.265625 -7.71875 C 9.460938 -7.71875 10.34375 -7.4375 10.90625 -6.875 C 11.476562 -6.3125 11.765625 -5.425781 11.765625 -4.21875 L 11.765625 -3.3125 C 11.765625 -2.101562 11.476562 -1.21875 10.90625 -0.65625 C 10.34375 -0.09375 9.460938 0.1875 8.265625 0.1875 C 7.640625 0.1875 6.976562 0.171875 6.28125 0.140625 L 4.59375 0.078125 C 3.34375 0.015625 2.050781 -0.0703125 0.71875 -0.1875 Z M 0.71875 -2.671875 "/></g></g></g><g fill="#ffffff" fill-opacity="1"><g transform="translate(160.747848, 200.664272)"><g><path d="M 7.171875 0 L 0.546875 0 L 0.546875 -2.578125 L 2.203125 -2.578125 L 2.203125 -10.296875 L 0.546875 -10.296875 L 0.546875 -12.859375 L 7.171875 -12.859375 L 7.171875 -10.296875 L 5.515625 -10.296875 L 5.515625 -2.578125 L 7.171875 -2.578125 Z M 7.171875 0 "/></g></g></g><g fill="#ffffff" fill-opacity="1"><g transform="translate(172.130271, 200.664272)"><g><path d="M 12.125 -0.28125 C 9.257812 0.03125 6.625 0.1875 4.21875 0.1875 C 3.019531 0.1875 2.140625 -0.09375 1.578125 -0.65625 C 1.015625 -1.21875 0.734375 -2.101562 0.734375 -3.3125 L 0.734375 -9.1875 C 0.734375 -10.46875 1.023438 -11.398438 1.609375 -11.984375 C 2.191406 -12.566406 3.125 -12.859375 4.40625 -12.859375 L 11.03125 -12.859375 L 11.03125 -10.296875 L 5.140625 -10.296875 C 4.410156 -10.296875 4.046875 -9.925781 4.046875 -9.1875 L 4.046875 -3.3125 C 4.046875 -3.03125 4.125 -2.804688 4.28125 -2.640625 C 4.445312 -2.472656 4.675781 -2.390625 4.96875 -2.390625 C 6.375 -2.390625 7.65625 -2.421875 8.8125 -2.484375 L 8.8125 -5.140625 L 6.4375 -5.140625 L 6.4375 -7.34375 L 12.125 -7.34375 Z M 12.125 -0.28125 "/></g></g></g><g fill="#ffffff" fill-opacity="1"><g transform="translate(188.651448, 200.664272)"><g><path d="M 12.3125 0 L 8.8125 0 L 4.40625 -7.71875 L 4.40625 0 L 1.109375 0 L 1.109375 -12.859375 L 4.59375 -12.859375 L 9 -5.140625 L 9 -12.859375 L 12.3125 -12.859375 Z M 12.3125 0 "/></g></g></g><g fill="#ffffff" fill-opacity="1"><g transform="translate(205.723202, 200.664272)"><g/></g></g><g fill="#ffffff" fill-opacity="1"><g transform="translate(214.903298, 200.664272)"><g><path d="M 11.03125 -0.1875 C 8.289062 0.0625 6.019531 0.1875 4.21875 0.1875 C 3.019531 0.1875 2.140625 -0.09375 1.578125 -0.65625 C 1.015625 -1.21875 0.734375 -2.101562 0.734375 -3.3125 L 0.734375 -9.1875 C 0.734375 -10.46875 1.023438 -11.398438 1.609375 -11.984375 C 2.191406 -12.566406 3.125 -12.859375 4.40625 -12.859375 L 11.03125 -12.859375 L 11.03125 -10.296875 L 5.140625 -10.296875 C 4.410156 -10.296875 4.046875 -9.925781 4.046875 -9.1875 L 4.046875 -3.3125 C 4.046875 -3.03125 4.125 -2.804688 4.28125 -2.640625 C 4.445312 -2.472656 4.660156 -2.390625 4.921875 -2.390625 C 5.179688 -2.390625 5.460938 -2.390625 5.765625 -2.390625 C 6.078125 -2.398438 6.394531 -2.410156 6.71875 -2.421875 C 7.050781 -2.429688 7.382812 -2.441406 7.71875 -2.453125 C 8.0625 -2.472656 8.5 -2.5 9.03125 -2.53125 C 9.5625 -2.570312 10.226562 -2.617188 11.03125 -2.671875 Z M 11.03125 -0.1875 "/></g></g></g><g fill="#ffffff" fill-opacity="1"><g transform="translate(229.956259, 200.664272)"><g><path d="M 9.375 -9.375 C 9.375 -10.101562 9.003906 -10.46875 8.265625 -10.46875 L 5.140625 -10.46875 C 4.410156 -10.46875 4.046875 -10.101562 4.046875 -9.375 L 4.046875 -3.484375 C 4.046875 -2.753906 4.410156 -2.390625 5.140625 -2.390625 L 8.265625 -2.390625 C 9.003906 -2.390625 9.375 -2.753906 9.375 -3.484375 Z M 12.671875 -3.484375 C 12.671875 -2.203125 12.378906 -1.269531 11.796875 -0.6875 C 11.222656 -0.101562 10.289062 0.1875 9 0.1875 L 4.40625 0.1875 C 3.125 0.1875 2.191406 -0.101562 1.609375 -0.6875 C 1.023438 -1.269531 0.734375 -2.203125 0.734375 -3.484375 L 0.734375 -9.375 C 0.734375 -10.65625 1.023438 -11.585938 1.609375 -12.171875 C 2.191406 -12.753906 3.125 -13.046875 4.40625 -13.046875 L 9 -13.046875 C 10.289062 -13.046875 11.222656 -12.753906 11.796875 -12.171875 C 12.378906 -11.585938 12.671875 -10.65625 12.671875 -9.375 Z M 12.671875 -3.484375 "/></g></g></g><g fill="#ffffff" fill-opacity="1"><g transform="translate(247.028013, 200.664272)"><g><path d="M 9.375 -12.859375 L 12.671875 -12.859375 L 12.671875 -3.484375 C 12.671875 -2.203125 12.378906 -1.269531 11.796875 -0.6875 C 11.222656 -0.101562 10.289062 0.1875 9 0.1875 L 4.78125 0.1875 C 3.488281 0.1875 2.550781 -0.101562 1.96875 -0.6875 C 1.394531 -1.269531 1.109375 -2.203125 1.109375 -3.484375 L 1.109375 -12.859375 L 4.40625 -12.859375 L 4.40625 -3.484375 C 4.40625 -2.753906 4.773438 -2.390625 5.515625 -2.390625 L 8.265625 -2.390625 C 9.003906 -2.390625 9.375 -2.753906 9.375 -3.484375 Z M 9.375 -12.859375 "/></g></g></g><g fill="#ffffff" fill-opacity="1"><g transform="translate(264.466824, 200.664272)"><g><path d="M 1.109375 -12.859375 L 8.8125 -12.859375 C 10.101562 -12.859375 11.039062 -12.566406 11.625 -11.984375 C 12.207031 -11.398438 12.5 -10.46875 12.5 -9.1875 L 12.5 -7.53125 C 12.5 -6.519531 12.328125 -5.726562 11.984375 -5.15625 C 11.648438 -4.59375 11.113281 -4.222656 10.375 -4.046875 L 12.671875 0 L 9.09375 0 L 6.984375 -3.859375 L 4.40625 -3.859375 L 4.40625 0 L 1.109375 0 Z M 9.1875 -9.1875 C 9.1875 -9.925781 8.816406 -10.296875 8.078125 -10.296875 L 4.40625 -10.296875 L 4.40625 -6.4375 L 8.078125 -6.4375 C 8.816406 -6.4375 9.1875 -6.800781 9.1875 -7.53125 Z M 9.1875 -9.1875 "/></g></g></g><g fill="#ffffff" fill-opacity="1"><g transform="translate(281.355054, 200.664272)"><g><path d="M 0.71875 -2.671875 C 4.070312 -2.484375 6.34375 -2.390625 7.53125 -2.390625 C 7.8125 -2.390625 8.035156 -2.472656 8.203125 -2.640625 C 8.367188 -2.804688 8.453125 -3.03125 8.453125 -3.3125 L 8.453125 -4.96875 L 4.21875 -4.96875 C 2.9375 -4.96875 2.003906 -5.253906 1.421875 -5.828125 C 0.835938 -6.410156 0.546875 -7.347656 0.546875 -8.640625 L 0.546875 -9.1875 C 0.546875 -10.46875 0.835938 -11.398438 1.421875 -11.984375 C 2.003906 -12.566406 2.9375 -12.859375 4.21875 -12.859375 L 10.671875 -12.859375 L 10.671875 -10.296875 L 4.96875 -10.296875 C 4.226562 -10.296875 3.859375 -9.925781 3.859375 -9.1875 L 3.859375 -8.8125 C 3.859375 -8.082031 4.226562 -7.71875 4.96875 -7.71875 L 8.265625 -7.71875 C 9.460938 -7.71875 10.34375 -7.4375 10.90625 -6.875 C 11.476562 -6.3125 11.765625 -5.425781 11.765625 -4.21875 L 11.765625 -3.3125 C 11.765625 -2.101562 11.476562 -1.21875 10.90625 -0.65625 C 10.34375 -0.09375 9.460938 0.1875 8.265625 0.1875 C 7.640625 0.1875 6.976562 0.171875 6.28125 0.140625 L 4.59375 0.078125 C 3.34375 0.015625 2.050781 -0.0703125 0.71875 -0.1875 Z M 0.71875 -2.671875 "/></g></g></g><g fill="#ffffff" fill-opacity="1"><g transform="translate(297.325654, 200.664272)"><g><path d="M 11.296875 0 L 1.109375 0 L 1.109375 -12.859375 L 11.296875 -12.859375 L 11.296875 -10.296875 L 4.40625 -10.296875 L 4.40625 -7.8125 L 9.828125 -7.8125 L 9.828125 -5.234375 L 4.40625 -5.234375 L 4.40625 -2.578125 L 11.296875 -2.578125 Z M 11.296875 0 "/></g></g></g></svg>