<svg xmlns="http://www.w3.org/2000/svg" xmlns:xlink="http://www.w3.org/1999/xlink" width="500" zoomAndPan="magnify" viewBox="0 0 375 374.999991" height="500" preserveAspectRatio="xMidYMid meet" version="1.0"><defs><g/></defs><g fill="#346dfc" fill-opacity="1"><g transform="translate(43.976387, 208.9202)"><g><path d="M 2.484375 -0.339844 L 14.902344 -2.03125 C 15.597656 -2.128906 16.0625 -2.796875 15.96875 -3.492188 L 14.382812 -15.117188 C 14.289062 -15.8125 14.761719 -16.433594 15.457031 -16.53125 L 22.90625 -17.546875 C 23.601562 -17.640625 24.222656 -17.167969 24.320312 -16.472656 L 25.910156 -4.800781 C 26.007812 -4.105469 26.628906 -3.632812 27.324219 -3.726562 L 39.742188 -5.421875 C 40.4375 -5.515625 40.902344 -6.1875 40.808594 -6.882812 L 39.132812 -19.152344 C 38.734375 -22.082031 36.308594 -23.929688 33.375 -23.527344 L 32.929688 -23.46875 C 32.234375 -23.371094 31.613281 -23.84375 31.515625 -24.539062 C 31.421875 -25.234375 31.894531 -25.855469 32.589844 -25.949219 L 33.039062 -26.011719 C 35.96875 -26.410156 37.8125 -28.839844 37.414062 -31.769531 L 36.667969 -37.234375 C 36.03125 -41.90625 32.136719 -44.863281 27.464844 -44.226562 L -2.9375 -40.082031 C -3.632812 -39.984375 -4.105469 -39.363281 -4.007812 -38.667969 L 1.074219 -1.410156 C 1.167969 -0.714844 1.789062 -0.242188 2.484375 -0.339844 Z M 13.898438 -27.957031 C 13.203125 -27.859375 12.582031 -28.332031 12.484375 -29.027344 C 12.390625 -29.722656 12.863281 -30.34375 13.558594 -30.4375 L 21.011719 -31.457031 C 21.707031 -31.550781 22.328125 -31.078125 22.421875 -30.382812 C 22.515625 -29.6875 22.042969 -29.066406 21.347656 -28.972656 Z M 13.898438 -27.957031 "/></g></g></g><g fill="#346dfc" fill-opacity="1"><g transform="translate(85.598345, 203.438282)"><g><path d="M 2.542969 -0.261719 L 14.960938 -1.546875 C 15.660156 -1.621094 16.152344 -2.226562 16.078125 -2.921875 L 12.210938 -40.328125 C 12.140625 -41.023438 11.484375 -41.511719 10.785156 -41.4375 L -1.632812 -40.15625 C -2.332031 -40.082031 -2.824219 -39.476562 -2.75 -38.78125 L 1.117188 -1.375 C 1.191406 -0.675781 1.84375 -0.191406 2.542969 -0.261719 Z M 2.542969 -0.261719 "/></g></g></g><g fill="#346dfc" fill-opacity="1"><g transform="translate(102.294019, 201.362913)"><g><path d="M 2.550781 -0.167969 L 15.007812 -0.980469 C 15.710938 -1.023438 16.222656 -1.609375 16.179688 -2.3125 L 14.726562 -24.574219 C 14.679688 -25.273438 15.195312 -25.863281 15.894531 -25.90625 C 16.597656 -25.953125 17.183594 -25.4375 17.226562 -24.738281 L 18.6875 -2.375 C 18.730469 -1.722656 19.363281 -1.261719 20.011719 -1.304688 L 32.519531 -2.121094 C 33.171875 -2.164062 33.738281 -2.703125 33.695312 -3.351562 L 32.238281 -25.714844 C 32.191406 -26.417969 32.707031 -27.003906 33.40625 -27.050781 C 34.109375 -27.09375 34.695312 -26.582031 34.738281 -25.878906 L 36.191406 -3.617188 C 36.238281 -2.914062 36.871094 -2.402344 37.574219 -2.449219 L 50.03125 -3.261719 C 50.730469 -3.308594 51.246094 -3.894531 51.199219 -4.59375 L 48.753906 -42.117188 C 48.707031 -42.820312 48.070312 -43.328125 47.371094 -43.285156 L 26.160156 -41.902344 C 25.457031 -41.855469 24.945312 -41.21875 24.992188 -40.519531 L 25.445312 -33.5625 C 25.492188 -32.863281 24.976562 -32.277344 24.277344 -32.230469 C 23.574219 -32.1875 22.988281 -32.699219 22.945312 -33.402344 L 22.488281 -40.40625 C 22.441406 -41.105469 21.804688 -41.617188 21.105469 -41.570312 L -0.109375 -40.1875 C -0.808594 -40.140625 -1.324219 -39.554688 -1.277344 -38.855469 L 1.167969 -1.332031 C 1.214844 -0.632812 1.851562 -0.121094 2.550781 -0.167969 Z M 2.550781 -0.167969 "/></g></g></g><g fill="#346dfc" fill-opacity="1"><g transform="translate(153.837651, 198.10463)"><g><path d="M 2.507812 -0.0351562 L 33.289062 -0.453125 C 38 -0.515625 41.414062 -4.023438 41.347656 -8.734375 L 41.273438 -14.25 C 41.234375 -17.207031 39.050781 -19.332031 36.089844 -19.292969 L 35.640625 -19.289062 C 34.9375 -19.277344 34.378906 -19.820312 34.371094 -20.523438 C 34.359375 -21.226562 34.902344 -21.785156 35.605469 -21.792969 L 36.058594 -21.800781 C 39.015625 -21.839844 41.140625 -24.023438 41.101562 -26.984375 L 41.027344 -32.496094 C 40.960938 -37.210938 37.457031 -40.621094 32.742188 -40.558594 L 1.960938 -40.140625 C 1.261719 -40.128906 0.714844 -39.570312 0.726562 -38.871094 L 1.234375 -1.269531 C 1.246094 -0.570312 1.804688 -0.0234375 2.507812 -0.0351562 Z M 17.195312 -26.054688 C 16.496094 -26.046875 15.933594 -26.589844 15.925781 -27.292969 C 15.917969 -27.996094 16.460938 -28.554688 17.160156 -28.5625 L 24.683594 -28.664062 C 25.382812 -28.675781 25.941406 -28.132812 25.953125 -27.429688 C 25.960938 -26.726562 25.417969 -26.167969 24.714844 -26.160156 Z M 17.386719 -12.019531 C 16.683594 -12.011719 16.125 -12.554688 16.117188 -13.253906 C 16.105469 -13.957031 16.652344 -14.515625 17.351562 -14.527344 L 24.871094 -14.628906 C 25.574219 -14.636719 26.132812 -14.09375 26.144531 -13.390625 C 26.152344 -12.691406 25.609375 -12.132812 24.90625 -12.121094 Z M 17.386719 -12.019531 "/></g></g></g><g fill="#346dfc" fill-opacity="1"><g transform="translate(195.658531, 197.516866)"><g><path d="M 2.554688 0.0820312 L 40.140625 1.308594 C 40.839844 1.332031 41.410156 0.796875 41.433594 0.0976562 L 41.742188 -9.425781 C 41.765625 -10.125 41.183594 -10.699219 40.480469 -10.71875 L 17.929688 -11.457031 C 17.230469 -11.476562 16.695312 -12.046875 16.71875 -12.75 C 16.742188 -13.449219 17.3125 -13.984375 18.011719 -13.960938 L 38.609375 -13.289062 C 39.308594 -13.265625 39.878906 -13.800781 39.902344 -14.5 L 40.179688 -23.019531 C 40.203125 -23.722656 39.617188 -24.292969 38.917969 -24.316406 L 18.371094 -24.984375 C 17.667969 -25.007812 17.136719 -25.578125 17.160156 -26.277344 C 17.183594 -26.980469 17.75 -27.511719 18.453125 -27.492188 L 41.054688 -26.753906 C 41.753906 -26.730469 42.324219 -27.265625 42.347656 -27.964844 L 42.65625 -37.488281 C 42.679688 -38.1875 42.148438 -38.757812 41.445312 -38.78125 L 3.8125 -40.007812 C 3.109375 -40.03125 2.539062 -39.496094 2.519531 -38.796875 L 1.292969 -1.210938 C 1.269531 -0.511719 1.855469 0.0585938 2.554688 0.0820312 Z M 2.554688 0.0820312 "/></g></g></g><g fill="#346dfc" fill-opacity="1"><g transform="translate(237.412935, 198.857121)"><g><path d="M 2.5 0.195312 L 14.996094 1.183594 C 15.695312 1.238281 16.292969 0.679688 16.347656 -0.0195312 L 17.269531 -11.714844 C 17.324219 -12.414062 17.917969 -12.921875 18.617188 -12.867188 L 26.113281 -12.273438 C 26.8125 -12.21875 27.320312 -11.625 27.265625 -10.925781 L 26.339844 0.820312 C 26.285156 1.519531 26.789062 2.113281 27.492188 2.167969 L 39.984375 3.152344 C 40.6875 3.207031 41.28125 2.652344 41.339844 1.949219 L 42.3125 -10.394531 C 42.542969 -13.34375 40.5625 -15.664062 37.613281 -15.894531 L 37.164062 -15.929688 C 36.464844 -15.984375 35.957031 -16.578125 36.015625 -17.277344 C 36.070312 -17.976562 36.660156 -18.484375 37.363281 -18.429688 L 37.8125 -18.394531 C 40.761719 -18.160156 43.078125 -20.140625 43.3125 -23.089844 L 43.746094 -28.589844 C 44.117188 -33.285156 40.9375 -37.007812 36.238281 -37.378906 L 5.652344 -39.789062 C 4.949219 -39.84375 4.359375 -39.335938 4.304688 -38.636719 L 1.347656 -1.152344 C 1.292969 -0.453125 1.800781 0.140625 2.5 0.195312 Z M 19.523438 -24.363281 C 18.824219 -24.417969 18.316406 -25.011719 18.371094 -25.710938 C 18.425781 -26.410156 19.019531 -26.917969 19.71875 -26.859375 L 27.21875 -26.269531 C 27.917969 -26.214844 28.421875 -25.621094 28.367188 -24.921875 C 28.3125 -24.222656 27.71875 -23.714844 27.019531 -23.769531 Z M 19.523438 -24.363281 "/></g></g></g><g fill="#346dfc" fill-opacity="1"><g transform="translate(279.248888, 202.348651)"><g><path d="M 2.542969 0.285156 L 14.949219 1.667969 C 15.644531 1.746094 16.253906 1.257812 16.332031 0.5625 L 20.503906 -36.808594 C 20.582031 -37.507812 20.046875 -38.121094 19.347656 -38.199219 L 6.941406 -39.585938 C 6.242188 -39.664062 5.632812 -39.175781 5.554688 -38.476562 L 1.382812 -1.105469 C 1.308594 -0.410156 1.84375 0.207031 2.542969 0.285156 Z M 2.542969 0.285156 "/></g></g></g><g fill="#346dfc" fill-opacity="1"><g transform="translate(296.156353, 204.102774)"><g><path d="M 11.371094 1.597656 L 23.386719 3.285156 C 29.242188 4.109375 34.113281 0.441406 34.9375 -5.417969 L 37.671875 -24.882812 C 38.496094 -30.738281 34.824219 -35.609375 28.96875 -36.433594 L 16.953125 -38.121094 C 11.09375 -38.945312 6.222656 -35.273438 5.398438 -29.417969 L 2.664062 -9.953125 C 1.839844 -4.09375 5.511719 0.773438 11.371094 1.597656 Z M 18.980469 -8.976562 C 18.289062 -9.074219 17.816406 -9.699219 17.914062 -10.394531 L 19.9375 -24.792969 C 20.035156 -25.488281 20.660156 -25.957031 21.355469 -25.859375 C 22.050781 -25.761719 22.519531 -25.136719 22.421875 -24.441406 L 20.398438 -10.042969 C 20.300781 -9.347656 19.675781 -8.878906 18.980469 -8.976562 Z M 18.980469 -8.976562 "/></g></g></g></svg>